<svg width="171" height="171" viewBox="0 0 171 171" fill="none" xmlns="http://www.w3.org/2000/svg">
<path d="M85.5002 21.375C99.166 21.375 110.58 30.9937 113.359 43.8259C116.972 42.8481 120.742 42.5916 124.455 43.0709C128.167 43.5502 131.748 44.756 134.994 46.6195C138.241 48.4829 141.088 50.9675 143.374 53.9314C145.66 56.8952 147.34 60.2804 148.318 63.8934C149.296 67.5065 149.552 71.2768 149.073 74.989C148.593 78.7013 147.388 82.2827 145.524 85.529C143.661 88.7752 141.176 91.6226 138.212 93.9086C135.248 96.1946 131.863 97.8745 128.25 98.8522V149.625H42.7502V98.8522C39.1371 97.8735 35.7522 96.1928 32.7887 93.9059C29.8252 91.619 27.3411 88.7708 25.4783 85.5239C23.6155 82.277 22.4105 78.695 21.932 74.9825C21.4536 71.2699 21.7111 67.4994 22.6898 63.8863C23.6685 60.2732 25.3493 56.8883 27.6361 53.9248C29.923 50.9613 32.7712 48.4772 36.0181 46.6144C39.265 44.7516 42.847 43.5466 46.5596 43.0681C50.2722 42.5897 54.0426 42.8472 57.6557 43.8259C59.0368 37.4673 62.5521 31.7727 67.6175 27.6885C72.6829 23.6043 78.9934 21.3764 85.5002 21.375ZM43.8973 121.189L128.25 121.125L43.8973 121.189Z" fill="white"/>
<path d="M43.8973 121.189L128.25 121.125M85.5002 21.375C99.166 21.375 110.58 30.9937 113.359 43.8259C116.972 42.8481 120.742 42.5916 124.455 43.0709C128.167 43.5502 131.748 44.756 134.994 46.6195C138.241 48.4829 141.088 50.9675 143.374 53.9314C145.66 56.8952 147.34 60.2804 148.318 63.8934C149.296 67.5065 149.552 71.2768 149.073 74.989C148.593 78.7013 147.388 82.2828 145.524 85.529C143.661 88.7752 141.176 91.6226 138.212 93.9086C135.248 96.1946 131.863 97.8745 128.25 98.8522V149.625H42.7502V98.8522C39.1371 97.8735 35.7522 96.1928 32.7887 93.9059C29.8252 91.619 27.3411 88.7708 25.4783 85.5239C23.6155 82.277 22.4105 78.695 21.932 74.9825C21.4536 71.2699 21.7111 67.4994 22.6898 63.8863C23.6685 60.2732 25.3493 56.8883 27.6361 53.9248C29.923 50.9613 32.7712 48.4772 36.0181 46.6144C39.265 44.7516 42.847 43.5466 46.5596 43.0681C50.2722 42.5897 54.0426 42.8472 57.6557 43.8259C59.0368 37.4673 62.5521 31.7727 67.6175 27.6885C72.6829 23.6043 78.9934 21.3764 85.5002 21.375Z" stroke="#FF3535" stroke-width="10" stroke-linecap="round" stroke-linejoin="round"/>
</svg>
