<svg width="120" height="120" viewBox="0 0 120 120" fill="none" xmlns="http://www.w3.org/2000/svg">
<path d="M60 110C58.8333 110 57.8333 109.667 57 109C56.1667 108.333 55.5417 107.458 55.125 106.375C53.5417 101.708 51.5417 97.3333 49.125 93.25C46.7917 89.1667 43.5 84.375 39.25 78.875C35 73.375 31.5417 68.125 28.875 63.125C26.2917 58.125 25 52.0833 25 45C25 35.25 28.375 27 35.125 20.25C41.9583 13.4167 50.25 10 60 10C69.75 10 78 13.4167 84.75 20.25C91.5833 27 95 35.25 95 45C95 52.5833 93.5417 58.9167 90.625 64C87.7917 69 84.5 73.9583 80.75 78.875C76.25 84.875 72.8333 89.875 70.5 93.875C68.25 97.7917 66.375 101.958 64.875 106.375C64.4583 107.542 63.7917 108.458 62.875 109.125C62.0417 109.708 61.0833 110 60 110ZM60 57.5C63.5 57.5 66.4583 56.2917 68.875 53.875C71.2917 51.4583 72.5 48.5 72.5 45C72.5 41.5 71.2917 38.5417 68.875 36.125C66.4583 33.7083 63.5 32.5 60 32.5C56.5 32.5 53.5417 33.7083 51.125 36.125C48.7083 38.5417 47.5 41.5 47.5 45C47.5 48.5 48.7083 51.4583 51.125 53.875C53.5417 56.2917 56.5 57.5 60 57.5Z" fill="#DC362E"/>
</svg>
