<svg width="250" height="250" viewBox="0 0 250 250" fill="none" xmlns="http://www.w3.org/2000/svg">
<path fill-rule="evenodd" clip-rule="evenodd" d="M166.667 93.7502C166.667 104.801 162.277 115.399 154.463 123.213C146.649 131.027 136.051 135.417 125.001 135.417C113.95 135.417 103.352 131.027 95.5379 123.213C87.7239 115.399 83.334 104.801 83.334 93.7502C83.334 82.6995 87.7239 72.1014 95.5379 64.2874C103.352 56.4734 113.95 52.0835 125.001 52.0835C136.051 52.0835 146.649 56.4734 154.463 64.2874C162.277 72.1014 166.667 82.6995 166.667 93.7502ZM145.834 93.7502C145.834 99.2755 143.639 104.575 139.732 108.482C135.825 112.389 130.526 114.583 125.001 114.583C119.475 114.583 114.176 112.389 110.269 108.482C106.362 104.575 104.167 99.2755 104.167 93.7502C104.167 88.2248 106.362 82.9258 110.269 79.0188C114.176 75.1118 119.475 72.9168 125.001 72.9168C130.526 72.9168 135.825 75.1118 139.732 79.0188C143.639 82.9258 145.834 88.2248 145.834 93.7502Z" fill="#FF853A"/>
<path fill-rule="evenodd" clip-rule="evenodd" d="M125 10.4167C61.7191 10.4167 10.417 61.7188 10.417 125C10.417 188.281 61.7191 239.583 125 239.583C188.282 239.583 239.584 188.281 239.584 125C239.584 61.7188 188.282 10.4167 125 10.4167ZM31.2503 125C31.2503 146.771 38.6774 166.813 51.1253 182.729C59.8695 171.251 71.1478 161.949 84.0799 155.549C97.012 149.149 111.248 145.824 125.677 145.833C139.921 145.817 153.98 149.053 166.783 155.296C179.586 161.538 190.794 170.622 199.552 181.854C208.578 170.017 214.655 156.2 217.28 141.548C219.906 126.896 219.005 111.829 214.651 97.5937C210.298 83.3588 202.617 70.3652 192.245 59.688C181.873 49.0108 169.107 40.957 155.004 36.1929C140.902 31.4288 125.867 30.0915 111.145 32.2915C96.4224 34.4915 82.4357 40.1656 70.3417 48.8444C58.2477 57.5232 48.3942 68.9571 41.5965 82.2C34.7987 95.443 31.2522 110.114 31.2503 125ZM125 218.75C103.479 218.785 82.606 211.381 65.917 197.792C72.6338 188.173 81.5753 180.32 91.9803 174.901C102.385 169.481 113.946 166.657 125.677 166.667C137.263 166.657 148.683 169.411 158.99 174.701C169.297 179.991 178.192 187.665 184.938 197.083C168.12 211.115 146.903 218.784 125 218.75Z" fill="#FF853A"/>
</svg>
