<svg width="80" height="80" viewBox="0 0 80 80" fill="none" xmlns="http://www.w3.org/2000/svg">
<path d="M40.0001 29.9997V43.333M40.0001 56.6664H40.0334M34.3001 12.8664L6.06674 59.9997C5.48463 61.0078 5.17663 62.1507 5.17337 63.3148C5.17011 64.4788 5.47171 65.6235 6.04816 66.6348C6.62461 67.6461 7.45582 68.4889 8.4591 69.0792C9.46237 69.6695 10.6027 69.9869 11.7667 69.9997H68.2334C69.3974 69.9869 70.5378 69.6695 71.541 69.0792C72.5443 68.4889 73.3755 67.6461 73.952 66.6348C74.5284 65.6235 74.83 64.4788 74.8268 63.3148C74.8235 62.1507 74.5155 61.0078 73.9334 59.9997L45.7001 12.8664C45.1058 11.8867 44.2691 11.0768 43.2707 10.5147C42.2723 9.95253 41.1459 9.65723 40.0001 9.65723C38.8543 9.65723 37.7278 9.95253 36.7294 10.5147C35.731 11.0768 34.8943 11.8867 34.3001 12.8664Z" stroke="#EC221F" stroke-width="4" stroke-linecap="round" stroke-linejoin="round"/>
</svg>
