<svg width="44" height="44" viewBox="0 0 44 44" fill="none" xmlns="http://www.w3.org/2000/svg">
<path fill-rule="evenodd" clip-rule="evenodd" d="M30 16C30 18.1217 29.1571 20.1566 27.6569 21.6569C26.1566 23.1571 24.1217 24 22 24C19.8783 24 17.8434 23.1571 16.3431 21.6569C14.8429 20.1566 14 18.1217 14 16C14 13.8783 14.8429 11.8434 16.3431 10.3431C17.8434 8.84285 19.8783 8 22 8C24.1217 8 26.1566 8.84285 27.6569 10.3431C29.1571 11.8434 30 13.8783 30 16ZM26 16C26 17.0609 25.5786 18.0783 24.8284 18.8284C24.0783 19.5786 23.0609 20 22 20C20.9391 20 19.9217 19.5786 19.1716 18.8284C18.4214 18.0783 18 17.0609 18 16C18 14.9391 18.4214 13.9217 19.1716 13.1716C19.9217 12.4214 20.9391 12 22 12C23.0609 12 24.0783 12.4214 24.8284 13.1716C25.5786 13.9217 26 14.9391 26 16Z" fill="#900B09"/>
<path fill-rule="evenodd" clip-rule="evenodd" d="M22 0C9.85 0 0 9.85 0 22C0 34.15 9.85 44 22 44C34.15 44 44 34.15 44 22C44 9.85 34.15 0 22 0ZM4 22C4 26.18 5.426 30.028 7.816 33.084C9.49488 30.8803 11.6603 29.0943 14.1433 27.8655C16.6262 26.6366 19.3596 25.9982 22.13 26C24.8648 25.9968 27.5641 26.6182 30.0223 27.8167C32.4804 29.0153 34.6323 30.7594 36.314 32.916C38.0469 30.6432 39.2137 27.9904 39.7178 25.1772C40.2219 22.3639 40.0489 19.4711 39.213 16.738C38.3771 14.0049 36.9024 11.5101 34.911 9.46007C32.9195 7.41005 30.4685 5.86372 27.7608 4.94902C25.053 4.03432 22.1664 3.77754 19.3397 4.19995C16.513 4.62235 13.8276 5.71178 11.5055 7.37811C9.18349 9.04443 7.29162 11.2397 5.98646 13.7824C4.68129 16.325 4.00036 19.1419 4 22ZM22 40C17.8678 40.0067 13.8603 38.5851 10.656 35.976C11.9456 34.1292 13.6624 32.6214 15.6602 31.5809C17.6579 30.5404 19.8775 29.9981 22.13 30C24.3544 29.9981 26.5471 30.5269 28.526 31.5426C30.5049 32.5583 32.2128 34.0316 33.508 35.84C30.2789 38.534 26.2053 40.0066 22 40Z" fill="#900B09"/>
</svg>
